<?xml version="1.0" standalone="no"?>
<!DOCTYPE svg PUBLIC "-//W3C//DTD SVG 20010904//EN"
 "http://www.w3.org/TR/2001/REC-SVG-20010904/DTD/svg10.dtd">
<svg version="1.0" xmlns="http://www.w3.org/2000/svg"
 width="512.000000pt" height="512.000000pt" viewBox="0 0 512.000000 512.000000"
 preserveAspectRatio="xMidYMid meet">
<metadata>
Created by potrace 1.14, written by Peter Selinger 2001-2017
</metadata>
<g transform="translate(0.000000,512.000000) scale(0.100000,-0.100000)"
fill="#000000" stroke="none">
<path d="M240 5104 c-123 -33 -202 -117 -229 -242 -15 -73 -16 -4512 0 -4598
19 -108 91 -197 189 -237 l55 -22 2305 0 2305 0 55 22 c98 40 170 129 189 237
8 42 11 744 11 2305 0 1863 -3 2256 -14 2304 -17 73 -66 145 -125 185 -98 66
67 62 -2426 61 -1957 0 -2267 -2 -2315 -15z m3322 -1417 c49 -25 100 -76 124
-123 18 -38 19 -75 22 -974 2 -615 -1 -952 -8 -983 -20 -96 -102 -173 -203
-191 -88 -16 -208 51 -248 139 -17 37 -19 83 -19 685 l0 645 -712 -712 c-392
-391 -729 -719 -748 -729 -47 -25 -172 -26 -216 -2 -41 22 -90 71 -112 112
-24 44 -23 169 2 216 10 19 338 356 729 748 l712 712 -643 0 c-708 0 -682 -2
-750 63 -113 108 -102 274 24 367 22 15 55 33 74 38 23 7 369 10 985 9 899 -2
952 -3 987 -20z"/>
</g>
</svg>
