<svg xmlns="http://www.w3.org/2000/svg" width="262.545" height="358.789" viewBox="0 0 262.545 358.789"><g transform="translate(-47.455 392.976)"><path d="M311.7-427.7l-3.7,3.2,6.4,7.7c29.7,35.5,45.3,74.5,40.7,101.2-2.7,15.7-8,23.4-19.7,28.7-9.8,4.4-20.8,5.9-52.4,6.9-37.5,1.2-49.3,2.9-61.8,8.8-8.1,3.7-17.3,13.1-20,20.4a57.354,57.354,0,0,0-.6,39.6c1.3,4,2.4,7.4,2.4,7.7a92.876,92.876,0,0,1-7.7,6.2c-19.1,14.2-49.5,47.4-64.3,70.2-1.5,2.3-1.6,2.2-12.5-11-14.9-18-13.8-16.8-13.1-14.6.3,1.1,1.1,8.3,1.6,16,1.1,15.3.1,38.8-2.5,55.8-.7,5.2-1.2,9.5-1,9.7s3.2-1.9,6.7-4.6c15.2-12,40.8-27.1,56.8-33.7l8.2-3.3-4.9-1c-2.6-.5-10.4-2-17.3-3.2-6.9-1.3-12.9-2.6-13.3-3-2-1.8,21.5-31.3,38.3-48,10.5-10.6,28.5-26,30.3-26,.3,0,3.8,3.4,7.8,7.6C236.3-165.6,270-153,305.6-153c15.5,0,26.2-1.8,34.8-5.8,8.3-3.9,12-7.3,15.2-13.8,2.3-4.7,2.6-6.3,2.2-12.2-1.5-20.2-20.9-37.8-49.4-44.9-8.6-2.1-31.7-2.3-42.4-.4-12,2.1-30.5,8.6-42.7,15.1l-11.4,5.9-.9-2.5c-2.4-6.3-3.2-12.1-2.8-21.2.3-8.2.8-10.7,3.1-15.5,5.7-11.6,17-17.2,39.4-19.6,5.4-.6,22-1.6,36.8-2.1,15.1-.6,30.7-1.7,35.4-2.5,29.4-5.4,43-22.2,43.1-53.2,0-27.8-14.5-61.4-40.5-93.8C315.6-431.8,316.2-431.4,311.7-427.7Zm-13,206.8c17.8,2.4,34.8,11.1,42.8,21.9,16.6,22.7-.6,37.5-41.5,35.7-27.4-1.3-53.4-10.5-71.4-25.3-3.5-2.9-7.4-6.6-8.6-8.4-2.2-3-2.2-3.2-.4-4.5,1.1-.8,6.4-3.7,11.9-6.4,14.5-7.1,26.9-10.8,45.5-13.5A89.594,89.594,0,0,1,298.7-220.9Z" transform="translate(-56 37)" fill="#9da6af"/></g></svg>