<svg xmlns="http://www.w3.org/2000/svg" width="200" height="200" viewBox="0 0 200 200"><rect width="200" height="200" fill="#fff"/><rect width="7" height="7" transform="translate(12 12)"/><rect width="7" height="7" transform="translate(19 12)"/><rect width="7" height="7" transform="translate(26 12)"/><rect width="7" height="7" transform="translate(33 12)"/><rect width="7" height="7" transform="translate(40 12)"/><rect width="7" height="7" transform="translate(47 12)"/><rect width="7" height="7" transform="translate(54 12)"/><rect width="7" height="7" transform="translate(68 12)"/><rect width="7" height="7" transform="translate(82 12)"/><rect width="7" height="7" transform="translate(96 12)"/><rect width="7" height="7" transform="translate(124 12)"/><rect width="7" height="7" transform="translate(138 12)"/><rect width="7" height="7" transform="translate(145 12)"/><rect width="7" height="7" transform="translate(152 12)"/><rect width="7" height="7" transform="translate(159 12)"/><rect width="7" height="7" transform="translate(166 12)"/><rect width="7" height="7" transform="translate(173 12)"/><rect width="7" height="7" transform="translate(180 12)"/><rect width="7" height="7" transform="translate(12 19)"/><rect width="7" height="7" transform="translate(54 19)"/><rect width="7" height="7" transform="translate(75 19)"/><rect width="7" height="7" transform="translate(82 19)"/><rect width="7" height="7" transform="translate(89 19)"/><rect width="7" height="7" transform="translate(96 19)"/><rect width="7" height="7" transform="translate(110 19)"/><rect width="7" height="7" transform="translate(124 19)"/><rect width="7" height="7" transform="translate(138 19)"/><rect width="7" height="7" transform="translate(180 19)"/><rect width="7" height="7" transform="translate(12 26)"/><rect width="7" height="7" transform="translate(26 26)"/><rect width="7" height="7" transform="translate(33 26)"/><rect width="7" height="7" transform="translate(40 26)"/><rect width="7" height="7" transform="translate(54 26)"/><rect width="7" height="7" transform="translate(68 26)"/><rect width="7" height="7" transform="translate(75 26)"/><rect width="7" height="7" transform="translate(82 26)"/><rect width="7" height="7" transform="translate(103 26)"/><rect width="7" height="7" transform="translate(110 26)"/><rect width="7" height="7" transform="translate(117 26)"/><rect width="7" height="7" transform="translate(124 26)"/><rect width="7" height="7" transform="translate(138 26)"/><rect width="7" height="7" transform="translate(152 26)"/><rect width="7" height="7" transform="translate(159 26)"/><rect width="7" height="7" transform="translate(166 26)"/><rect width="7" height="7" transform="translate(180 26)"/><rect width="7" height="7" transform="translate(12 33)"/><rect width="7" height="7" transform="translate(26 33)"/><rect width="7" height="7" transform="translate(33 33)"/><rect width="7" height="7" transform="translate(40 33)"/><rect width="7" height="7" transform="translate(54 33)"/><rect width="7" height="7" transform="translate(68 33)"/><rect width="7" height="7" transform="translate(75 33)"/><rect width="7" height="7" transform="translate(82 33)"/><rect width="7" height="7" transform="translate(96 33)"/><rect width="7" height="7" transform="translate(103 33)"/><rect width="7" height="7" transform="translate(110 33)"/><rect width="7" height="7" transform="translate(117 33)"/><rect width="7" height="7" transform="translate(124 33)"/><rect width="7" height="7" transform="translate(138 33)"/><rect width="7" height="7" transform="translate(152 33)"/><rect width="7" height="7" transform="translate(159 33)"/><rect width="7" height="7" transform="translate(166 33)"/><rect width="7" height="7" transform="translate(180 33)"/><rect width="7" height="7" transform="translate(12 40)"/><rect width="7" height="7" transform="translate(26 40)"/><rect width="7" height="7" transform="translate(33 40)"/><rect width="7" height="7" transform="translate(40 40)"/><rect width="7" height="7" transform="translate(54 40)"/><rect width="7" height="7" transform="translate(68 40)"/><rect width="7" height="7" transform="translate(89 40)"/><rect width="7" height="7" transform="translate(96 40)"/><rect width="7" height="7" transform="translate(117 40)"/><rect width="7" height="7" transform="translate(124 40)"/><rect width="7" height="7" transform="translate(138 40)"/><rect width="7" height="7" transform="translate(152 40)"/><rect width="7" height="7" transform="translate(159 40)"/><rect width="7" height="7" transform="translate(166 40)"/><rect width="7" height="7" transform="translate(180 40)"/><rect width="7" height="7" transform="translate(12 47)"/><rect width="7" height="7" transform="translate(54 47)"/><rect width="7" height="7" transform="translate(82 47)"/><rect width="7" height="7" transform="translate(89 47)"/><rect width="7" height="7" transform="translate(103 47)"/><rect width="7" height="7" transform="translate(124 47)"/><rect width="7" height="7" transform="translate(138 47)"/><rect width="7" height="7" transform="translate(180 47)"/><rect width="7" height="7" transform="translate(12 54)"/><rect width="7" height="7" transform="translate(19 54)"/><rect width="7" height="7" transform="translate(26 54)"/><rect width="7" height="7" transform="translate(33 54)"/><rect width="7" height="7" transform="translate(40 54)"/><rect width="7" height="7" transform="translate(47 54)"/><rect width="7" height="7" transform="translate(54 54)"/><rect width="7" height="7" transform="translate(68 54)"/><rect width="7" height="7" transform="translate(82 54)"/><rect width="7" height="7" transform="translate(96 54)"/><rect width="7" height="7" transform="translate(110 54)"/><rect width="7" height="7" transform="translate(124 54)"/><rect width="7" height="7" transform="translate(138 54)"/><rect width="7" height="7" transform="translate(145 54)"/><rect width="7" height="7" transform="translate(152 54)"/><rect width="7" height="7" transform="translate(159 54)"/><rect width="7" height="7" transform="translate(166 54)"/><rect width="7" height="7" transform="translate(173 54)"/><rect width="7" height="7" transform="translate(180 54)"/><rect width="7" height="7" transform="translate(82 61)"/><rect width="7" height="7" transform="translate(96 61)"/><rect width="7" height="7" transform="translate(110 61)"/><rect width="7" height="7" transform="translate(124 61)"/><rect width="7" height="7" transform="translate(12 68)"/><rect width="7" height="7" transform="translate(19 68)"/><rect width="7" height="7" transform="translate(26 68)"/><rect width="7" height="7" transform="translate(33 68)"/><rect width="7" height="7" transform="translate(54 68)"/><rect width="7" height="7" transform="translate(68 68)"/><rect width="7" height="7" transform="translate(82 68)"/><rect width="7" height="7" transform="translate(89 68)"/><rect width="7" height="7" transform="translate(96 68)"/><rect width="7" height="7" transform="translate(110 68)"/><rect width="7" height="7" transform="translate(131 68)"/><rect width="7" height="7" transform="translate(152 68)"/><rect width="7" height="7" transform="translate(159 68)"/><rect width="7" height="7" transform="translate(166 68)"/><rect width="7" height="7" transform="translate(180 68)"/><rect width="7" height="7" transform="translate(26 75)"/><rect width="7" height="7" transform="translate(33 75)"/><rect width="7" height="7" transform="translate(40 75)"/><rect width="7" height="7" transform="translate(47 75)"/><rect width="7" height="7" transform="translate(61 75)"/><rect width="7" height="7" transform="translate(68 75)"/><rect width="7" height="7" transform="translate(82 75)"/><rect width="7" height="7" transform="translate(96 75)"/><rect width="7" height="7" transform="translate(110 75)"/><rect width="7" height="7" transform="translate(124 75)"/><rect width="7" height="7" transform="translate(145 75)"/><rect width="7" height="7" transform="translate(173 75)"/><rect width="7" height="7" transform="translate(19 82)"/><rect width="7" height="7" transform="translate(26 82)"/><rect width="7" height="7" transform="translate(40 82)"/><rect width="7" height="7" transform="translate(47 82)"/><rect width="7" height="7" transform="translate(54 82)"/><rect width="7" height="7" transform="translate(75 82)"/><rect width="7" height="7" transform="translate(82 82)"/><rect width="7" height="7" transform="translate(89 82)"/><rect width="7" height="7" transform="translate(96 82)"/><rect width="7" height="7" transform="translate(110 82)"/><rect width="7" height="7" transform="translate(124 82)"/><rect width="7" height="7" transform="translate(138 82)"/><rect width="7" height="7" transform="translate(145 82)"/><rect width="7" height="7" transform="translate(19 89)"/><rect width="7" height="7" transform="translate(26 89)"/><rect width="7" height="7" transform="translate(40 89)"/><rect width="7" height="7" transform="translate(61 89)"/><rect width="7" height="7" transform="translate(75 89)"/><rect width="7" height="7" transform="translate(82 89)"/><rect width="7" height="7" transform="translate(103 89)"/><rect width="7" height="7" transform="translate(124 89)"/><rect width="7" height="7" transform="translate(131 89)"/><rect width="7" height="7" transform="translate(138 89)"/><rect width="7" height="7" transform="translate(159 89)"/><rect width="7" height="7" transform="translate(166 89)"/><rect width="7" height="7" transform="translate(19 96)"/><rect width="7" height="7" transform="translate(33 96)"/><rect width="7" height="7" transform="translate(40 96)"/><rect width="7" height="7" transform="translate(54 96)"/><rect width="7" height="7" transform="translate(61 96)"/><rect width="7" height="7" transform="translate(68 96)"/><rect width="7" height="7" transform="translate(75 96)"/><rect width="7" height="7" transform="translate(82 96)"/><rect width="7" height="7" transform="translate(96 96)"/><rect width="7" height="7" transform="translate(103 96)"/><rect width="7" height="7" transform="translate(117 96)"/><rect width="7" height="7" transform="translate(131 96)"/><rect width="7" height="7" transform="translate(138 96)"/><rect width="7" height="7" transform="translate(152 96)"/><rect width="7" height="7" transform="translate(166 96)"/><rect width="7" height="7" transform="translate(173 96)"/><rect width="7" height="7" transform="translate(180 96)"/><rect width="7" height="7" transform="translate(33 103)"/><rect width="7" height="7" transform="translate(40 103)"/><rect width="7" height="7" transform="translate(61 103)"/><rect width="7" height="7" transform="translate(68 103)"/><rect width="7" height="7" transform="translate(89 103)"/><rect width="7" height="7" transform="translate(96 103)"/><rect width="7" height="7" transform="translate(103 103)"/><rect width="7" height="7" transform="translate(110 103)"/><rect width="7" height="7" transform="translate(117 103)"/><rect width="7" height="7" transform="translate(124 103)"/><rect width="7" height="7" transform="translate(138 103)"/><rect width="7" height="7" transform="translate(145 103)"/><rect width="7" height="7" transform="translate(152 103)"/><rect width="7" height="7" transform="translate(180 103)"/><rect width="7" height="7" transform="translate(19 110)"/><rect width="7" height="7" transform="translate(26 110)"/><rect width="7" height="7" transform="translate(33 110)"/><rect width="7" height="7" transform="translate(47 110)"/><rect width="7" height="7" transform="translate(54 110)"/><rect width="7" height="7" transform="translate(75 110)"/><rect width="7" height="7" transform="translate(89 110)"/><rect width="7" height="7" transform="translate(110 110)"/><rect width="7" height="7" transform="translate(124 110)"/><rect width="7" height="7" transform="translate(131 110)"/><rect width="7" height="7" transform="translate(152 110)"/><rect width="7" height="7" transform="translate(166 110)"/><rect width="7" height="7" transform="translate(173 110)"/><rect width="7" height="7" transform="translate(12 117)"/><rect width="7" height="7" transform="translate(26 117)"/><rect width="7" height="7" transform="translate(33 117)"/><rect width="7" height="7" transform="translate(61 117)"/><rect width="7" height="7" transform="translate(75 117)"/><rect width="7" height="7" transform="translate(89 117)"/><rect width="7" height="7" transform="translate(117 117)"/><rect width="7" height="7" transform="translate(138 117)"/><rect width="7" height="7" transform="translate(145 117)"/><rect width="7" height="7" transform="translate(152 117)"/><rect width="7" height="7" transform="translate(180 117)"/><rect width="7" height="7" transform="translate(26 124)"/><rect width="7" height="7" transform="translate(33 124)"/><rect width="7" height="7" transform="translate(40 124)"/><rect width="7" height="7" transform="translate(54 124)"/><rect width="7" height="7" transform="translate(61 124)"/><rect width="7" height="7" transform="translate(75 124)"/><rect width="7" height="7" transform="translate(103 124)"/><rect width="7" height="7" transform="translate(117 124)"/><rect width="7" height="7" transform="translate(124 124)"/><rect width="7" height="7" transform="translate(131 124)"/><rect width="7" height="7" transform="translate(138 124)"/><rect width="7" height="7" transform="translate(145 124)"/><rect width="7" height="7" transform="translate(152 124)"/><rect width="7" height="7" transform="translate(159 124)"/><rect width="7" height="7" transform="translate(166 124)"/><rect width="7" height="7" transform="translate(173 124)"/><rect width="7" height="7" transform="translate(180 124)"/><rect width="7" height="7" transform="translate(68 131)"/><rect width="7" height="7" transform="translate(75 131)"/><rect width="7" height="7" transform="translate(82 131)"/><rect width="7" height="7" transform="translate(110 131)"/><rect width="7" height="7" transform="translate(124 131)"/><rect width="7" height="7" transform="translate(152 131)"/><rect width="7" height="7" transform="translate(166 131)"/><rect width="7" height="7" transform="translate(180 131)"/><rect width="7" height="7" transform="translate(12 138)"/><rect width="7" height="7" transform="translate(19 138)"/><rect width="7" height="7" transform="translate(26 138)"/><rect width="7" height="7" transform="translate(33 138)"/><rect width="7" height="7" transform="translate(40 138)"/><rect width="7" height="7" transform="translate(47 138)"/><rect width="7" height="7" transform="translate(54 138)"/><rect width="7" height="7" transform="translate(82 138)"/><rect width="7" height="7" transform="translate(124 138)"/><rect width="7" height="7" transform="translate(138 138)"/><rect width="7" height="7" transform="translate(152 138)"/><rect width="7" height="7" transform="translate(166 138)"/><rect width="7" height="7" transform="translate(173 138)"/><rect width="7" height="7" transform="translate(180 138)"/><rect width="7" height="7" transform="translate(12 145)"/><rect width="7" height="7" transform="translate(54 145)"/><rect width="7" height="7" transform="translate(75 145)"/><rect width="7" height="7" transform="translate(82 145)"/><rect width="7" height="7" transform="translate(96 145)"/><rect width="7" height="7" transform="translate(110 145)"/><rect width="7" height="7" transform="translate(117 145)"/><rect width="7" height="7" transform="translate(124 145)"/><rect width="7" height="7" transform="translate(152 145)"/><rect width="7" height="7" transform="translate(12 152)"/><rect width="7" height="7" transform="translate(26 152)"/><rect width="7" height="7" transform="translate(33 152)"/><rect width="7" height="7" transform="translate(40 152)"/><rect width="7" height="7" transform="translate(54 152)"/><rect width="7" height="7" transform="translate(75 152)"/><rect width="7" height="7" transform="translate(82 152)"/><rect width="7" height="7" transform="translate(89 152)"/><rect width="7" height="7" transform="translate(110 152)"/><rect width="7" height="7" transform="translate(124 152)"/><rect width="7" height="7" transform="translate(131 152)"/><rect width="7" height="7" transform="translate(138 152)"/><rect width="7" height="7" transform="translate(145 152)"/><rect width="7" height="7" transform="translate(152 152)"/><rect width="7" height="7" transform="translate(159 152)"/><rect width="7" height="7" transform="translate(180 152)"/><rect width="7" height="7" transform="translate(12 159)"/><rect width="7" height="7" transform="translate(26 159)"/><rect width="7" height="7" transform="translate(33 159)"/><rect width="7" height="7" transform="translate(40 159)"/><rect width="7" height="7" transform="translate(54 159)"/><rect width="7" height="7" transform="translate(68 159)"/><rect width="7" height="7" transform="translate(82 159)"/><rect width="7" height="7" transform="translate(89 159)"/><rect width="7" height="7" transform="translate(96 159)"/><rect width="7" height="7" transform="translate(103 159)"/><rect width="7" height="7" transform="translate(110 159)"/><rect width="7" height="7" transform="translate(124 159)"/><rect width="7" height="7" transform="translate(131 159)"/><rect width="7" height="7" transform="translate(138 159)"/><rect width="7" height="7" transform="translate(152 159)"/><rect width="7" height="7" transform="translate(159 159)"/><rect width="7" height="7" transform="translate(166 159)"/><rect width="7" height="7" transform="translate(173 159)"/><rect width="7" height="7" transform="translate(180 159)"/><rect width="7" height="7" transform="translate(12 166)"/><rect width="7" height="7" transform="translate(26 166)"/><rect width="7" height="7" transform="translate(33 166)"/><rect width="7" height="7" transform="translate(40 166)"/><rect width="7" height="7" transform="translate(54 166)"/><rect width="7" height="7" transform="translate(68 166)"/><rect width="7" height="7" transform="translate(75 166)"/><rect width="7" height="7" transform="translate(82 166)"/><rect width="7" height="7" transform="translate(89 166)"/><rect width="7" height="7" transform="translate(110 166)"/><rect width="7" height="7" transform="translate(117 166)"/><rect width="7" height="7" transform="translate(131 166)"/><rect width="7" height="7" transform="translate(138 166)"/><rect width="7" height="7" transform="translate(152 166)"/><rect width="7" height="7" transform="translate(166 166)"/><rect width="7" height="7" transform="translate(173 166)"/><rect width="7" height="7" transform="translate(12 173)"/><rect width="7" height="7" transform="translate(54 173)"/><rect width="7" height="7" transform="translate(68 173)"/><rect width="7" height="7" transform="translate(75 173)"/><rect width="7" height="7" transform="translate(89 173)"/><rect width="7" height="7" transform="translate(103 173)"/><rect width="7" height="7" transform="translate(110 173)"/><rect width="7" height="7" transform="translate(117 173)"/><rect width="7" height="7" transform="translate(131 173)"/><rect width="7" height="7" transform="translate(138 173)"/><rect width="7" height="7" transform="translate(152 173)"/><rect width="7" height="7" transform="translate(166 173)"/><rect width="7" height="7" transform="translate(12 180)"/><rect width="7" height="7" transform="translate(19 180)"/><rect width="7" height="7" transform="translate(26 180)"/><rect width="7" height="7" transform="translate(33 180)"/><rect width="7" height="7" transform="translate(40 180)"/><rect width="7" height="7" transform="translate(47 180)"/><rect width="7" height="7" transform="translate(54 180)"/><rect width="7" height="7" transform="translate(68 180)"/><rect width="7" height="7" transform="translate(75 180)"/><rect width="7" height="7" transform="translate(89 180)"/><rect width="7" height="7" transform="translate(103 180)"/><rect width="7" height="7" transform="translate(110 180)"/><rect width="7" height="7" transform="translate(131 180)"/><rect width="7" height="7" transform="translate(145 180)"/><rect width="7" height="7" transform="translate(152 180)"/><rect width="7" height="7" transform="translate(159 180)"/><rect width="7" height="7" transform="translate(166 180)"/><rect width="7" height="7" transform="translate(173 180)"/><rect width="7" height="7" transform="translate(180 180)"/></svg>